<?xml version="1.0" encoding="UTF-8"?>
<svg width="752pt" height="752pt" version="1.1" viewBox="0 0 752 752" xmlns="http://www.w3.org/2000/svg">
 <path d="m459.55 355.36c-0.83984-1.7656-2.957-2.5234-4.7305-1.6797l-78.816 37.508-78.812-37.512c-1.7695-0.83984-3.8945-0.089843-4.7344 1.6797-0.84375 1.7695-0.089844 3.8867 1.6797 4.7344l80.34 38.23c0.050782 0.023438 0.10547 0.015626 0.15625 0.039063 0.42969 0.17969 0.89062 0.30469 1.3633 0.30859h0.019531c0.47266-0.003907 0.92188-0.12891 1.3555-0.30859 0.050781-0.023437 0.10937-0.015625 0.16016-0.039063l80.34-38.23c1.7695-0.84375 2.5234-2.9609 1.6797-4.7305zm-83.547-101.3c-67.242 0-121.95 54.703-121.95 121.95 0 67.246 54.703 121.95 121.95 121.95 67.238 0 121.95-54.703 121.95-121.95 0.003907-67.246-54.703-121.95-121.95-121.95zm0 236.79c-63.328 0-114.84-51.516-114.84-114.84 0-63.324 51.52-114.84 114.84-114.84s114.84 51.516 114.84 114.84-51.52 114.84-114.84 114.84z"/>
</svg>
