<svg id="Layer_1" data-name="Layer 1" xmlns="http://www.w3.org/2000/svg" viewBox="0 0 26.68 26.65"><defs><style>.cls-1{fill:#ff1c51;}</style></defs><g id="Layer_3" data-name="Layer 3"><path id="Path_71" data-name="Path 71" class="cls-1" d="M17.82,9.84a.41.41,0,0,0-.57-.11.41.41,0,0,0-.11.56l0,.05a4.88,4.88,0,1,1-3.85-1.88A4.91,4.91,0,0,1,16,9.22a.39.39,0,0,0,.56-.11.41.41,0,0,0-.11-.57h0a5.69,5.69,0,1,0,1.42,1.29Z" transform="translate(0.01 -0.01)"/><path id="Path_72" data-name="Path 72" class="cls-1" d="M19.67,17.92a.42.42,0,0,1-.05-.53,7.19,7.19,0,0,0,1-2.24l1.07.54c0,.05,0,.1,0,.15a1.67,1.67,0,0,0,3.34,0,1.67,1.67,0,0,0-3-1l-1.19-.6a7.55,7.55,0,0,0,0-1.84,7.45,7.45,0,0,0-1.15-3.16l.94-.94A3.79,3.79,0,1,0,20,7.76l-.85.85A7.49,7.49,0,0,0,14.29,5.9l-.54-.05V5a1.65,1.65,0,0,0,1.19-2,1.66,1.66,0,1,0-3.22.83A1.65,1.65,0,0,0,12.91,5v.91a7.41,7.41,0,0,0-4.57,1.9L6.69,6.1a3.76,3.76,0,1,0-.59.59L7.75,8.35a7.41,7.41,0,0,0-1.9,4.57H5a1.66,1.66,0,1,0,0,.84h.9c0,.18,0,.36.05.55a7.36,7.36,0,0,0,1.48,3.56L6.1,19.16a3.75,3.75,0,1,0,.59.59l1.24-1.24a7.45,7.45,0,0,0,4.51,2.27,8.08,8.08,0,0,0,1.39,0l.28,1.11a1.66,1.66,0,1,0,.88-.26H14.9l-.24-1a7.45,7.45,0,0,0,2.72-1.07.41.41,0,0,1,.52.05l6.61,6.61a1.25,1.25,0,0,0,.88.36h.1a1.26,1.26,0,0,0,.92-.52,1.28,1.28,0,0,0-.17-1.64ZM23.31,15a.85.85,0,0,1,.84.84.84.84,0,0,1-1.67,0h0a.83.83,0,0,1,.83-.83ZM22.9,2.52A2.91,2.91,0,1,1,20,5.43h0A2.91,2.91,0,0,1,22.9,2.52ZM3.76,25a2.91,2.91,0,1,1,2.91-2.91h0A2.91,2.91,0,0,1,3.76,25Zm12.07-1.66a.84.84,0,0,1-.84.83.83.83,0,1,1,0-1.66.84.84,0,0,1,.84.83Zm-3.33-20a.83.83,0,1,1,.83.83.82.82,0,0,1-.83-.83ZM3.76,6.68A2.92,2.92,0,1,1,6.67,3.76h0A2.91,2.91,0,0,1,3.76,6.68Zm-.41,7.49a.84.84,0,0,1-.84-.83.84.84,0,0,1,1.67,0h0a.83.83,0,0,1-.83.83ZM25.73,25.65a.4.4,0,0,1-.3.17.41.41,0,0,1-.33-.12l-6.6-6.61a1.25,1.25,0,0,0-1.57-.15,6.68,6.68,0,1,1,2-2,1.24,1.24,0,0,0,.16,1.56l6.57,6.58a.46.46,0,0,1,.08.57Z" transform="translate(0.01 -0.01)"/><path id="Path_73" data-name="Path 73" class="cls-1" d="M10.08,15v.72a1.23,1.23,0,0,0,.7,1.11,5.66,5.66,0,0,0,5.1,0,1.24,1.24,0,0,0,.7-1.11V15a3.27,3.27,0,0,0-2-3,1.63,1.63,0,1,0-2.45,0A3.26,3.26,0,0,0,10.08,15Zm2.44-4.07a.81.81,0,1,1,.81.81h0A.81.81,0,0,1,12.52,10.9Zm.81,1.63A2.44,2.44,0,0,1,15.77,15v.72a.39.39,0,0,1-.24.37,4.81,4.81,0,0,1-4.4,0,.41.41,0,0,1-.24-.37V15a2.44,2.44,0,0,1,2.44-2.44Z" transform="translate(0.01 -0.01)"/><path id="Path_74" data-name="Path 74" class="cls-1" d="M21.61,7.49a3.81,3.81,0,0,0,2.74,0,1.05,1.05,0,0,0,.67-1,2.06,2.06,0,0,0-1-1.76,1.22,1.22,0,1,0-2-1.38,1.24,1.24,0,0,0,0,1.38,2,2,0,0,0-1,1.76A1,1,0,0,0,21.61,7.49Zm1-3.4A.41.41,0,0,1,23,3.68a.41.41,0,0,1,.41.41.41.41,0,0,1-.82,0ZM23,5.31A1.21,1.21,0,0,1,24.2,6.53h0a.2.2,0,0,1-.14.2h0a3,3,0,0,1-2.16,0,.22.22,0,0,1-.14-.2A1.22,1.22,0,0,1,23,5.31h0Z" transform="translate(0.01 -0.01)"/><path id="Path_75" data-name="Path 75" class="cls-1" d="M4.69,21.65a1.22,1.22,0,1,0-2,0,2,2,0,0,0-1,1.76,1,1,0,0,0,.66,1,3.81,3.81,0,0,0,2.74,0,1,1,0,0,0,.66-1A2,2,0,0,0,4.69,21.65ZM3.27,21a.41.41,0,0,1,.41-.41.41.41,0,1,1-.41.41Zm1.49,2.64h0a3,3,0,0,1-2.16,0,.2.2,0,0,1-.14-.2,1.22,1.22,0,0,1,2.44,0,.22.22,0,0,1-.14.2Z" transform="translate(0.01 -0.01)"/><path id="Path_76" data-name="Path 76" class="cls-1" d="M4.69,3.14a1.22,1.22,0,1,0-2,0,2,2,0,0,0-1,1.76,1,1,0,0,0,.66,1,3.81,3.81,0,0,0,2.74,0,1,1,0,0,0,.66-1A2,2,0,0,0,4.69,3.14ZM3.27,2.46a.41.41,0,0,1,.41-.41.41.41,0,0,1,.41.41.42.42,0,0,1-.41.41.41.41,0,0,1-.41-.41ZM4.76,5.1h0a2.88,2.88,0,0,1-2.16,0,.2.2,0,0,1-.14-.2,1.22,1.22,0,0,1,2.44,0h0A.22.22,0,0,1,4.76,5.1Z" transform="translate(0.01 -0.01)"/></g></svg>