<?xml version="1.0" encoding="UTF-8"?>
<svg width="752pt" height="752pt" version="1.1" viewBox="0 0 752 752" xmlns="http://www.w3.org/2000/svg">
 <path d="m186.57 376c0 104.45 84.98 189.43 189.43 189.43s189.43-84.98 189.43-189.43-84.98-189.43-189.43-189.43-189.43 84.98-189.43 189.43zm28.414 0c0-89.094 71.922-161.02 161.02-161.02 89.098 0 161.02 71.922 161.02 161.02s-71.922 161.02-161.02 161.02c-89.098 0-161.02-71.922-161.02-161.02zm33.152 0c0.13281 3.3867 1.5273 7.3008 3.8477 9.7695l75.773 80.508c5.1328 4.6133 14.98 6.5195 20.719 1.1836 5.6523-5.2539 5.4844-15.445-0.14844-20.719l-53.277-56.535h194.61c7.8477 0 14.207-6.3594 14.207-14.207s-6.3594-14.207-14.207-14.207h-194.61l53.277-56.535c4.8477-4.8555 5.7461-15.406 0.14844-20.719-5.5977-5.3125-15.797-3.6172-20.719 1.1836l-75.773 80.508c-2.5938 2.7539-3.8555 5.9883-3.8477 9.7695z"/>
</svg>
